<?xml version="1.0" standalone="no"?>
<!DOCTYPE svg PUBLIC "-//W3C//DTD SVG 20010904//EN"
 "http://www.w3.org/TR/2001/REC-SVG-20010904/DTD/svg10.dtd">
<svg version="1.0" xmlns="http://www.w3.org/2000/svg"
 width="140.000000pt" height="46.000000pt" viewBox="0 0 140.000000 46.000000"
 preserveAspectRatio="xMidYMid meet">
<g transform="translate(0.000000,46.000000) scale(0.100000,-0.100000)"
fill="#000000" stroke="none">
<path d="M97 393 c-4 -3 -7 -24 -7 -45 l0 -38 130 0 130 0 0 45 0 45 -123 0
c-68 0 -127 -3 -130 -7z m163 -43 l0 -30 -75 0 -75 0 0 30 0 30 75 0 75 0 0
-30z m78 3 c-2 -22 -9 -29 -30 -31 -25 -3 -28 0 -28 27 0 28 3 31 31 31 27 0
30 -3 27 -27z"/>
<path d="M90 194 l0 -95 43 3 42 3 3 47 3 47 47 3 47 3 3 43 3 42 -95 0 -96 0
0 -96z m78 49 c-2 -22 -9 -29 -30 -31 -25 -3 -28 0 -28 27 0 28 3 31 31 31 27
0 30 -3 27 -27z m90 0 c-3 -25 -7 -28 -38 -28 -31 0 -35 3 -38 28 -3 26 -1 27
38 27 39 0 41 -1 38 -27z m-93 -83 c0 -31 -3 -35 -27 -38 -27 -3 -28 -1 -28
38 0 39 1 41 28 38 24 -3 27 -7 27 -38z"/>
<path d="M430 260 c0 -19 5 -21 72 -18 60 2 73 6 76 21 3 15 -6 17 -72 17 -70
0 -76 -2 -76 -20z"/>
<path d="M1210 265 c0 -8 9 -15 20 -15 11 0 20 7 20 15 0 8 -9 15 -20 15 -11
0 -20 -7 -20 -15z"/>
<path d="M623 233 l-33 -4 0 -60 c0 -46 3 -59 15 -59 10 0 15 10 15 29 0 42
10 61 31 61 12 0 19 7 19 20 0 11 -3 19 -7 18 -5 0 -23 -3 -40 -5z"/>
<path d="M895 230 c-2 -4 -16 -5 -30 -2 -25 4 -25 3 -25 -57 0 -54 2 -61 20
-61 17 0 20 7 20 46 0 38 3 45 18 42 12 -2 18 -15 20 -46 4 -58 30 -58 34 0 2
31 8 44 21 46 14 3 17 -4 17 -42 0 -39 3 -46 20 -46 18 0 20 7 20 54 0 32 -5
58 -12 62 -16 10 -117 13 -123 4z"/>
<path d="M1093 233 l-33 -4 0 -60 c0 -52 2 -59 20 -59 17 0 20 7 20 45 0 38 3
45 20 45 17 0 20 -7 20 -45 0 -38 3 -45 20 -45 18 0 20 7 20 55 0 43 -4 56
-19 65 -11 5 -23 9 -28 8 -4 0 -23 -3 -40 -5z"/>
<path d="M696 215 c-11 -29 -6 -82 8 -94 8 -7 34 -11 58 -9 36 3 44 7 52 30 6
18 6 38 0 56 -8 24 -15 27 -60 30 -40 2 -53 -1 -58 -13z m79 -45 c0 -38 -39
-35 -43 3 -3 25 0 28 20 25 17 -2 23 -9 23 -28z"/>
<path d="M1210 170 c0 -53 2 -60 20 -60 18 0 20 7 20 60 0 53 -2 60 -20 60
-18 0 -20 -7 -20 -60z"/>
<path d="M430 160 c0 -47 2 -50 25 -50 21 0 25 5 25 30 0 27 3 30 30 30 23 0
30 4 30 20 0 18 -7 20 -55 20 l-55 0 0 -50z"/>
</g>
</svg>
